<?xml version="1.0" encoding="UTF-8"?>
<svg id="Layer_1" data-name="Layer 1" xmlns="http://www.w3.org/2000/svg" viewBox="0 0 328.82 157.36">
  <defs>
    <style>
      .cls-1 {
        fill: #7448fe;
      }
    </style>
  </defs>
  <path class="cls-1" d="m243.83,0c-23.4,0-44.45,10.23-58.83,26.47l-26.43,29.94-17.45,19.74-28.3,32.07v.02c-8.29,9.56-20.49,15.6-34.14,15.6-12.49,0-23.74-5.05-31.94-13.22-8.16-8.2-13.22-19.45-13.22-31.94,0-.36,0-.73.02-1.09.55-23.81,19.94-43.34,43.74-44.05.45,0,.93-.02,1.4-.02,13.78,0,26.1,6.16,34.39,15.91l.02.02,17.27,19.52,2.45-2.71,2.45-2.71,12.83-14.16,2.45-2.69,2.45-2.71-14.78-16.72-1.24-1.4-.02.02-.02-.04v-.02C122.58,9.98,101.78,0,78.68,0,35.21,0,0,35.23,0,78.68s35.21,78.68,78.68,78.68c23.05,0,43.81-9.93,58.19-25.72l.04-.04v-.02l1.31-1.47,70.37-79.61.04-.09c8.29-10.31,20.96-16.89,35.21-16.89,12.49,0,23.76,5.05,31.94,13.23,8.18,8.18,13.22,19.45,13.22,31.92s-5.04,23.74-13.22,31.94c-8.18,8.16-19.45,13.22-31.94,13.22-14.16,0-26.76-6.51-35.05-16.71l-.04-.05-.07-.05-.02-.05-.04-.04-16.96-19.22-4.05,4.68-.75.86-6.27,7.25-11.07,12.8,13.49,15.27s.05.07.09.11c14.42,17.51,36.3,28.67,60.74,28.67,43.47,0,78.68-35.23,78.68-78.68S287.3,0,243.83,0Z"/>
</svg>