<?xml version="1.0" encoding="UTF-8"?>
<svg id="Layer_1" data-name="Layer 1" xmlns="http://www.w3.org/2000/svg" viewBox="0 0 733.92 199.15">
  <defs>
    <style>
      .cls-1 {
        fill: #fff;
      }

      .cls-2 {
        fill: #7448fe;
      }
    </style>
  </defs>
  <g>
    <path class="cls-2" d="m401.8,124.56s-.03-.04-.05-.06l.03.04.02.02Z"/>
    <path class="cls-2" d="m402.25,125.08l-.51-.58s.03.04.05.06l.46.52Z"/>
    <path class="cls-2" d="m419.22,74.21c-10.77,0-20.45,4.71-27.07,12.18l-12.16,13.78-8.03,9.08-13.02,14.76h0c-3.81,4.41-9.43,7.19-15.71,7.19-5.75,0-10.93-2.33-14.7-6.08-3.76-3.77-6.08-8.95-6.08-14.7,0-.17,0-.33,0-.5.25-10.96,9.18-19.94,20.13-20.27.21,0,.43,0,.64,0,6.34,0,12.01,2.84,15.83,7.32h0s7.95,8.99,7.95,8.99l1.13-1.25,1.13-1.25,5.91-6.52,1.13-1.24,1.13-1.25-6.8-7.7-.57-.64h0s0,0,0,0h0c-6.62-7.3-16.19-11.9-26.82-11.9-20,0-36.2,16.21-36.2,36.2s16.2,36.2,36.2,36.2c10.61,0,20.16-4.57,26.78-11.84l.02-.02h0s.6-.69.6-.69l32.38-36.63.02-.04c3.81-4.74,9.65-7.77,16.2-7.77,5.75,0,10.93,2.33,14.7,6.09,3.76,3.76,6.08,8.95,6.08,14.69s-2.32,10.93-6.08,14.7c-3.76,3.76-8.95,6.08-14.7,6.08-6.52,0-12.31-2.99-16.13-7.69l-.02-.03-.03-.03v-.03s-.03-.02-.03-.02l-7.8-8.84-1.86,2.15-.35.4-2.89,3.34-5.09,5.89,6.21,7.03s.03.03.04.05c6.63,8.06,16.71,13.19,27.95,13.19,20,0,36.2-16.21,36.2-36.2s-16.2-36.2-36.2-36.2Z"/>
    <path class="cls-2" d="m392.99,87.96l.41-.47c-.13.14-.25.28-.38.43l-.03.04Z"/>
    <rect class="cls-2" x="718.2" y="51.92" width="15.72" height="88.96"/>
    <rect class="cls-2" x="690.95" y="51.92" width="15.72" height="88.96"/>
    <rect class="cls-2" x="661" y="79.95" width="15.72" height="60.93"/>
    <path class="cls-2" d="m668.79,53.26c-2.6,0-4.86.97-6.76,2.92-1.91,1.95-2.86,4.23-2.86,6.82s.95,4.86,2.86,6.76c1.91,1.91,4.16,2.86,6.76,2.86s4.98-.95,6.88-2.86c1.91-1.91,2.86-4.16,2.86-6.76s-.96-4.87-2.86-6.82c-1.91-1.95-4.2-2.92-6.88-2.92Z"/>
    <path class="cls-2" d="m633.27,90.43v-10.48h-15.72v60.93h15.72v-29.12c0-5.85,1.89-10.03,5.67-12.55,3.78-2.52,8.06-3.49,12.86-2.92v-17.55c-4.14,0-7.9.97-11.27,2.92-3.37,1.95-5.79,4.87-7.25,8.77Z"/>
    <path class="cls-2" d="m568.4,55.58h-33.88v85.3h33.88c11.7,0,21.47-4.1,29.31-12.31,7.84-8.2,11.76-18.32,11.76-30.34s-3.92-22.14-11.76-30.34c-7.84-8.2-17.61-12.31-29.31-12.31Zm18.03,61.84c-4.63,4.92-10.64,7.37-18.03,7.37h-17.06v-53.13h17.06c7.39,0,13.4,2.46,18.03,7.37,4.63,4.92,6.95,11.31,6.95,19.19s-2.32,14.28-6.95,19.19Z"/>
    <path class="cls-2" d="m496.96,78.24c-8.53,0-15.11,2.97-19.74,8.9v-7.19h-15.72v85.3h15.72v-31.56c4.63,5.93,11.21,8.9,19.74,8.9s15.21-3.11,21.02-9.32c5.81-6.21,8.71-13.83,8.71-22.85s-2.91-16.63-8.71-22.85c-5.81-6.21-12.82-9.32-21.02-9.32Zm9.2,44.54c-3.21,3.21-7.25,4.81-12.12,4.81s-8.9-1.6-12.06-4.81c-3.17-3.21-4.75-7.33-4.75-12.37s1.58-9.16,4.75-12.37c3.17-3.21,7.19-4.81,12.06-4.81s8.91,1.6,12.12,4.81c3.21,3.21,4.81,7.33,4.81,12.37s-1.6,9.16-4.81,12.37Z"/>
    <polygon class="cls-2" points="272.62 55.58 255.81 55.58 255.81 140.88 305.16 140.88 305.16 124.79 272.62 124.79 272.62 55.58"/>
  </g>
  <rect class="cls-2" width="199.15" height="199.15" rx="40.77" ry="40.77"/>
  <path class="cls-1" d="m137.57,63.37c-10.77,0-20.45,4.71-27.07,12.18l-12.16,13.78-8.03,9.08-13.02,14.76h0c-3.81,4.41-9.43,7.19-15.71,7.19-5.75,0-10.93-2.33-14.7-6.08-3.76-3.77-6.08-8.95-6.08-14.7,0-.17,0-.33,0-.5.25-10.96,9.18-19.94,20.13-20.27.21,0,.43,0,.64,0,6.34,0,12.01,2.84,15.83,7.32h0s7.95,8.99,7.95,8.99l1.13-1.25,1.13-1.25,5.91-6.52,1.13-1.24,1.13-1.25-6.8-7.7-.57-.64h0s0,0,0,0h0c-6.62-7.3-16.19-11.9-26.82-11.9-20,0-36.2,16.21-36.2,36.2s16.2,36.2,36.2,36.2c10.61,0,20.16-4.57,26.78-11.84l.02-.02h0s.6-.69.6-.69l32.38-36.63.02-.04c3.81-4.74,9.65-7.77,16.2-7.77,5.75,0,10.93,2.33,14.7,6.09s6.08,8.95,6.08,14.69-2.32,10.93-6.08,14.7c-3.76,3.76-8.95,6.08-14.7,6.08-6.52,0-12.31-2.99-16.13-7.69l-.02-.03-.03-.03v-.03s-.03-.02-.03-.02l-7.8-8.84-1.86,2.15-.35.4-2.89,3.34-5.09,5.89,6.21,7.03s.03.03.04.05c6.63,8.06,16.71,13.19,27.95,13.19,20,0,36.2-16.21,36.2-36.2s-16.2-36.2-36.2-36.2Z"/>
</svg>